<svg id="SvgjsSvg1025" width="288" height="288" xmlns="http://www.w3.org/2000/svg" version="1.1" xmlns:xlink="http://www.w3.org/1999/xlink" xmlns:svgjs="http://svgjs.com/svgjs"><defs id="SvgjsDefs1026"></defs><g id="SvgjsG1027"><svg xmlns="http://www.w3.org/2000/svg" width="288" height="288" viewBox="0 0 24 24"><g fill="#ffffff" fill-rule="evenodd" class="colorfff svgShape"><polygon points="0 0 24 0 24 24 0 24" opacity="0" fill="#ffffff" class="color000 svgShape"></polygon><path fill="#ffffff" fill-rule="nonzero" d="M12,4 L12,6 C8.6862915,6 6,8.6862915 6,12 C6,15.3137085 8.6862915,18 12,18 C15.3137085,18 18,15.3137085 18,12 C18,10.9603196 17.7360885,9.96126435 17.2402578,9.07513926 L18.9856052,8.09853149 C19.6473536,9.28117708 20,10.6161442 20,12 C20,16.418278 16.418278,20 12,20 C7.581722,20 4,16.418278 4,12 C4,7.581722 7.581722,4 12,4 Z" transform="matrix(-1 0 0 1 24 0)" class="color000 svgShape"></path></g></svg></g></svg>